<?xml version="1.0" standalone="no"?>
<!DOCTYPE svg PUBLIC "-//W3C//DTD SVG 20010904//EN"
 "http://www.w3.org/TR/2001/REC-SVG-20010904/DTD/svg10.dtd">
<svg version="1.0" xmlns="http://www.w3.org/2000/svg"
 width="633.000000pt" height="649.000000pt" viewBox="0 0 633.000000 649.000000"
 preserveAspectRatio="xMidYMid meet">

<g transform="translate(0.000000,649.000000) scale(0.100000,-0.100000)"
fill="#000000" stroke="none">
<path d="M3145 6433 c-37 -222 -127 -329 -325 -390 -102 -31 -127 -49 -84 -58
16 -4 54 -13 84 -22 172 -47 268 -153 319 -353 10 -41 23 -76 28 -77 5 -2 15
30 21 71 17 100 67 200 129 258 70 65 130 92 266 122 46 10 31 23 -55 46 -105
28 -149 51 -208 106 -61 57 -96 123 -124 236 -13 51 -29 94 -34 96 -6 2 -14
-14 -17 -35z"/>
<path d="M2077 5951 c-21 -47 -45 -69 -93 -86 -21 -7 -40 -17 -42 -23 -1 -5
21 -18 50 -28 48 -17 56 -24 78 -71 14 -29 30 -52 36 -53 6 0 16 18 23 39 13
46 48 77 102 91 55 15 56 28 4 41 -49 12 -100 60 -111 104 -9 36 -28 31 -47
-14z"/>
<path d="M4211 5945 c-20 -46 -62 -79 -113 -90 -41 -9 -34 -23 17 -36 48 -12
90 -52 101 -95 9 -37 37 -28 59 19 16 33 31 47 72 67 29 14 52 29 50 34 -2 5
-16 14 -33 20 -56 21 -75 38 -94 82 -11 24 -24 44 -29 44 -6 0 -19 -20 -30
-45z"/>
<path d="M1701 5744 c-26 -18 -25 -51 2 -68 23 -15 51 3 55 37 4 35 -26 52
-57 31z"/>
<path d="M2557 5672 c-25 -27 -22 -78 5 -96 30 -21 50 -20 82 5 50 39 24 109
-41 109 -16 0 -37 -8 -46 -18z"/>
<path d="M4570 5660 c-29 -29 -26 -74 6 -99 35 -27 59 -26 89 4 46 45 19 115
-45 115 -17 0 -39 -9 -50 -20z"/>
<path d="M1191 5591 c-37 -123 -101 -185 -225 -223 -39 -11 -73 -23 -76 -25
-8 -7 25 -23 50 -23 34 0 129 -46 163 -78 35 -33 83 -124 92 -176 10 -51 25
-41 45 30 22 78 42 115 84 151 34 30 109 64 174 78 17 3 32 10 32 14 0 4 -33
17 -74 29 -42 12 -92 36 -117 55 -50 37 -97 121 -106 186 -3 23 -9 44 -13 46
-5 3 -18 -26 -29 -64z"/>
<path d="M5110 5630 c0 -34 -38 -130 -65 -166 -27 -35 -141 -96 -203 -109 -44
-9 -36 -28 15 -37 137 -23 228 -113 249 -246 8 -52 29 -55 39 -6 12 64 51 138
92 175 38 35 134 79 171 79 9 0 24 5 32 10 13 9 13 11 0 20 -8 5 -23 10 -32
10 -34 0 -130 43 -163 72 -37 32 -91 130 -101 184 -7 37 -34 48 -34 14z"/>
<path d="M4060 5595 c-7 -9 -10 -25 -6 -40 6 -22 11 -26 39 -23 25 2 33 8 35
26 7 44 -41 70 -68 37z"/>
<path d="M2985 5264 c-185 -19 -397 -74 -604 -155 -203 -80 -425 -226 -612
-404 -335 -316 -540 -699 -615 -1150 -25 -148 -24 -468 2 -613 6 -33 23 -54
25 -30 1 37 10 105 15 118 3 8 7 40 9 70 4 62 6 76 40 245 59 291 161 561 296
782 134 219 364 455 567 582 48 30 82 35 82 13 0 -6 -39 -47 -86 -93 -186
-182 -323 -400 -410 -652 -83 -241 -114 -420 -114 -662 0 -195 16 -320 61
-480 44 -154 95 -273 188 -438 74 -132 225 -315 351 -425 78 -68 266 -202 284
-202 5 0 20 -8 34 -19 65 -45 271 -123 412 -156 41 -9 89 -21 105 -27 48 -16
378 -22 480 -9 360 47 622 158 908 383 82 64 107 75 107 45 0 -37 -231 -286
-362 -391 -144 -115 -218 -163 -378 -244 -100 -50 -144 -69 -279 -123 -47 -19
-12 -19 83 1 150 31 212 48 316 90 285 113 491 248 700 460 173 175 286 335
396 565 267 557 280 1122 40 1692 -48 113 -159 310 -218 387 -348 450 -781
719 -1312 817 -108 19 -412 33 -511 23z m226 -790 c337 -58 618 -231 802 -496
164 -236 237 -479 224 -743 -9 -182 -40 -300 -119 -460 -130 -262 -350 -459
-630 -565 -174 -65 -212 -71 -510 -77 l-268 -5 0 1181 0 1181 203 0 c141 0
232 -5 298 -16z m1179 -108 c13 -23 13 -29 0 -53 -20 -35 -42 -47 -72 -40 -55
14 -61 97 -9 123 31 16 62 4 81 -30z m-2109 -167 c126 -43 146 -191 38 -272
-37 -27 -108 -33 -146 -13 -127 65 -119 234 14 281 47 17 52 18 94 4z m-281
-539 c25 -25 25 -45 0 -70 -28 -28 -80 -4 -80 37 0 15 36 53 50 53 6 0 19 -9
30 -20z m2685 -330 c8 -7 19 -27 25 -46 10 -29 9 -39 -7 -67 -50 -85 -164 -63
-179 35 -5 27 -1 40 20 65 15 18 37 33 49 35 27 5 74 -7 92 -22z m-2639 -9
c151 -68 105 -291 -60 -291 -80 0 -136 42 -156 118 -14 54 -6 93 28 134 49 58
116 72 188 39z m422 -393 c7 -7 12 -21 12 -33 0 -29 -19 -45 -52 -45 -36 0
-56 36 -39 69 13 23 59 29 79 9z m2200 -271 c17 -13 15 -52 -4 -71 -23 -24
-61 -20 -80 9 -37 56 28 105 84 62z m-2423 -141 c57 -24 74 -90 33 -133 -47
-50 -138 -12 -138 57 0 49 23 79 68 89 1 1 18 -5 37 -13z m1762 -359 c28 -25
39 -80 24 -113 -13 -29 -67 -64 -99 -64 -14 0 -39 15 -58 34 -43 43 -46 90 -9
135 38 45 98 48 142 8z"/>
<path d="M4703 5126 c-33 -15 -63 -60 -63 -96 0 -36 28 -77 65 -94 101 -48
193 81 118 164 -33 36 -76 45 -120 26z"/>
<path d="M1512 5034 c-26 -18 -30 -75 -6 -94 23 -20 75 -16 90 5 31 42 3 105
-46 105 -9 0 -26 -7 -38 -16z"/>
<path d="M960 4860 c-35 -35 -21 -93 25 -104 68 -17 110 77 51 116 -20 14 -56
8 -76 -12z"/>
<path d="M5366 4824 c-9 -8 -16 -22 -16 -29 0 -18 27 -45 45 -45 19 0 45 28
45 49 0 38 -45 54 -74 25z"/>
<path d="M630 4547 c-25 -52 -37 -61 -115 -93 -40 -16 -40 -16 -15 -27 105
-46 108 -48 129 -98 12 -27 26 -49 32 -49 5 0 18 19 28 43 23 53 48 75 101 91
23 7 42 16 42 22 1 5 -21 17 -48 27 -63 24 -69 29 -95 88 -13 27 -25 49 -28
49 -3 0 -17 -24 -31 -53z"/>
<path d="M5651 4568 c-17 -51 -51 -86 -105 -105 -27 -10 -49 -22 -48 -27 0 -6
19 -15 42 -22 53 -16 78 -38 101 -91 21 -49 44 -56 52 -15 12 55 43 89 96 107
28 9 51 20 51 23 0 4 -22 15 -49 25 -52 18 -80 48 -98 101 -13 41 -29 43 -42
4z"/>
<path d="M886 4204 c-25 -24 -20 -71 9 -90 55 -36 117 25 81 80 -19 30 -65 35
-90 10z"/>
<path d="M292 4148 c-30 -30 0 -75 42 -64 29 7 40 31 26 57 -12 21 -50 25 -68
7z"/>
<path d="M435 3744 c-9 -33 -23 -79 -31 -103 -44 -139 -149 -228 -317 -270
-39 -10 -73 -23 -74 -28 -2 -6 20 -15 49 -21 202 -40 318 -156 366 -367 9 -41
21 -74 26 -72 4 1 19 44 32 95 12 51 35 115 50 142 56 102 166 179 294 202 33
6 60 14 60 18 0 3 -30 14 -67 24 -197 52 -290 147 -341 350 -11 43 -23 80 -26
83 -2 3 -12 -21 -21 -53z"/>
<path d="M5861 3777 c-6 -16 -11 -36 -11 -46 0 -24 -32 -117 -58 -167 -25 -48
-95 -115 -154 -145 -23 -13 -77 -33 -118 -45 -41 -12 -76 -26 -78 -32 -1 -5
29 -17 67 -25 85 -20 158 -55 211 -103 51 -46 104 -153 127 -254 11 -48 23
-80 30 -80 7 0 13 10 13 23 0 39 40 170 67 220 56 102 165 175 296 197 96 17
89 26 -38 56 -93 22 -188 85 -242 161 -32 44 -83 179 -83 218 0 11 -4 27 -10
35 -7 11 -11 9 -19 -13z"/>
<path d="M312 2677 c-12 -13 -22 -33 -22 -46 0 -27 42 -71 68 -71 33 0 72 38
72 71 0 62 -75 92 -118 46z"/>
<path d="M5922 2638 c-30 -30 -2 -86 37 -73 33 10 45 32 33 60 -13 27 -49 34
-70 13z"/>
<path d="M631 2339 c-21 -46 -30 -54 -82 -78 -32 -14 -59 -29 -59 -33 0 -4 17
-12 39 -18 52 -14 84 -41 106 -89 10 -23 22 -41 26 -41 5 0 19 21 31 46 23 50
60 78 114 89 41 7 44 22 7 31 -79 19 -114 52 -137 127 -9 28 -20 20 -45 -34z"/>
<path d="M5640 2345 c-21 -50 -58 -81 -111 -95 -49 -13 -50 -27 -3 -36 46 -9
99 -55 114 -99 16 -48 34 -44 61 13 20 38 34 52 76 72 29 14 52 27 53 30 0 3
-20 13 -45 24 -52 21 -82 54 -91 100 -8 46 -32 41 -54 -9z"/>
<path d="M5383 1910 c-36 -14 -65 -69 -59 -109 8 -53 47 -86 100 -86 78 0 122
66 92 138 -22 54 -80 78 -133 57z"/>
<path d="M901 1844 c-12 -15 -21 -37 -21 -50 0 -25 43 -64 70 -64 10 0 29 9
44 21 33 26 34 68 3 97 -32 30 -71 28 -96 -4z"/>
<path d="M1200 1585 c0 -29 -33 -111 -62 -153 -36 -52 -82 -82 -173 -112 -85
-27 -97 -37 -59 -45 171 -38 250 -108 287 -255 7 -28 17 -51 22 -51 5 0 16 28
24 63 33 131 93 192 224 228 71 20 82 35 32 44 -50 10 -124 42 -164 73 -36 28
-88 125 -97 186 -6 35 -34 54 -34 22z"/>
<path d="M5105 1543 c-36 -126 -88 -180 -214 -223 -42 -14 -75 -30 -73 -35 1
-6 21 -15 45 -21 66 -17 129 -48 161 -80 36 -36 73 -115 82 -171 9 -58 27 -54
43 10 36 139 92 197 232 236 31 9 57 20 58 26 2 5 -26 19 -61 30 -89 30 -121
49 -161 95 -34 41 -77 135 -77 171 0 38 -19 18 -35 -38z"/>
<path d="M4692 1078 c-17 -17 -15 -53 3 -68 12 -10 21 -10 40 -2 40 19 29 82
-15 82 -9 0 -21 -5 -28 -12z"/>
<path d="M1661 1001 c-25 -25 -27 -49 -5 -79 23 -33 73 -27 94 11 13 24 13 30
0 55 -20 35 -61 41 -89 13z"/>
<path d="M3141 865 c-19 -93 -69 -192 -124 -242 -58 -54 -113 -82 -211 -108
-44 -12 -81 -26 -83 -31 -2 -6 29 -18 68 -27 192 -46 295 -154 347 -365 9 -40
22 -74 27 -75 5 -1 17 35 27 80 45 218 160 330 381 369 20 3 37 10 37 14 0 4
-32 16 -72 25 -97 24 -198 77 -243 126 -47 52 -92 148 -109 230 -7 34 -17 64
-22 66 -6 2 -16 -26 -23 -62z"/>
<path d="M2080 846 c-14 -42 -45 -72 -95 -89 -51 -18 -55 -34 -10 -43 47 -9
91 -46 105 -89 15 -46 33 -44 55 5 23 50 40 65 93 81 23 7 42 16 42 20 0 4
-20 15 -45 25 -49 18 -91 60 -101 100 -9 34 -31 30 -44 -10z"/>
<path d="M4215 843 c-22 -53 -41 -70 -96 -88 -27 -9 -49 -21 -49 -25 0 -5 19
-14 43 -21 51 -13 73 -32 98 -81 22 -43 44 -49 53 -14 10 40 52 82 96 95 50
15 48 30 -8 49 -42 14 -73 46 -92 96 -13 36 -27 33 -45 -11z"/>
</g>
</svg>
